<?xml version="1.0" encoding="UTF-8"?>
<svg id="Layer_2" data-name="Layer 2" xmlns="http://www.w3.org/2000/svg" viewBox="0 0 622.74 656.27">
  <defs>
    <style>
      .cls-1 {
        fill: #31363a;
      }

      .cls-1, .cls-2 {
        stroke-width: 0px;
      }

      .cls-2 {
        fill: #696c6f;
      }
    </style>
  </defs>
  <g id="Layer_1-2" data-name="Layer 1">
    <g>
      <path class="cls-1" d="m.52,512.82c.44-122.99.9-245.99,1.35-368.98C2.05,95.9,1.57,47.93,3.18,0c.25.07.72.81,4.68,2.36,10.32,4.06,50.51,24.12,65.55,31.51,22.47,11.04,44.73,22.62,67.11,33.86,161.3,81.02,321.58,164.15,482.22,246.45v1.56c-170.34,91.02-339.42,184.45-508.38,278.01-16.23,8.99-32.35,18.17-48.57,27.18-21.1,11.73-42.42,23.09-63.45,34.95-.26-.02-.52,0-.78,0l-1.56.39c.17-47.82.35-95.63.52-143.45Z"/>
      <path class="cls-2" d="m7.18,617.21q1.27-294.13,2.54-588.26c189.57,99.1,381.21,194.15,572.36,290.17-108.73,55.35-214.86,115.71-323.1,171.98-83.12,43.21-167.96,83.18-250.63,127.29l-1.17-1.18Z"/>
    </g>
  </g>
</svg>